<?xml version="1.0" encoding="utf-8"?>
<!-- Svg Vector Icons : http://www.onlinewebfonts.com/icon -->
<!DOCTYPE svg PUBLIC "-//W3C//DTD SVG 1.1//EN" "http://www.w3.org/Graphics/SVG/1.1/DTD/svg11.dtd">
<svg version="1.1" xmlns="http://www.w3.org/2000/svg" xmlns:xlink="http://www.w3.org/1999/xlink" x="0px" y="0px" viewBox="0 0 256 256" enable-background="new 0 0 256 256" xml:space="preserve">
<metadata> Svg Vector Icons : http://www.onlinewebfonts.com/icon </metadata>
<g><g><g><path fill="#000000" d="M157.1,10.5c-2.9,0.7-4.6,2.1-5.9,4.9c-1.2,2.8-1.1,5,0.6,7.8c2.2,3.6,1.7,3.6,35.3,3.6h30.4l-29.7,29.7l-29.7,29.7l-2.5-2c-6.8-5.5-16.6-10.8-26-14.1c-18.2-6.3-39.3-6.4-57.9-0.3c-31.4,10.4-55.1,38-60.7,70.6c-1.3,7.5-1.6,20.6-0.6,27.6c4.8,33.7,28.2,62.3,60.1,73.3c11.1,3.9,15.7,4.6,29.8,4.6c10.9,0,13.3-0.2,18-1.2c36.7-8.3,63.6-35.5,70.9-71.8c1.7-8.4,1.8-24.7,0.2-33.1c-1.5-8.2-4.9-17.9-8.7-25.3c-2.8-5.5-4.7-8.4-10.3-16.1c-0.4-0.6,6.3-7.6,28.8-30.1C215.5,52.2,228.9,39,229.1,39c0.3,0,0.4,13.6,0.4,30.3c0,28.2,0.1,30.4,1,32.2c1.3,2.6,5.5,4.7,8.1,4.2c2.6-0.5,5.2-2.3,6.4-4.4c0.9-1.7,1-4.5,1-43.4c0-40.8,0-41.7-1.1-43.6c-0.7-1.1-2-2.4-3.1-3.1c-1.9-1.1-2.8-1.1-42.4-1.2C177.1,10.1,158,10.2,157.1,10.5z M113.1,82.8c23,4,43.1,19.1,53.8,40.4c2.5,5,5.4,14,6.4,19.9c1.1,6.4,1.2,18.8,0.1,25.1C166.1,210,125,237.4,83.9,228c-28.5-6.5-50.7-29.6-56.4-58.8c-1.3-6.7-1.3-19.9,0-26.6c3.1-15.7,9.7-28.1,20.8-39.2C59.8,92,74,84.9,90.5,82.4C94.4,81.8,108.6,82,113.1,82.8z"/></g></g></g>
</svg>